<svg xmlns="http://www.w3.org/2000/svg" xmlns:xlink="http://www.w3.org/1999/xlink" width="500" zoomAndPan="magnify" viewBox="0 0 375 374.999991" height="500" preserveAspectRatio="xMidYMid meet" version="1.0"><defs><clipPath id="9d75341b12"><path d="M 45.136719 88 L 330 88 L 330 307 L 45.136719 307 Z M 45.136719 88 " clip-rule="nonzero"/></clipPath><clipPath id="d97442c7c0"><path d="M 45.136719 68 L 330 68 L 330 286.890625 L 45.136719 286.890625 Z M 45.136719 68 " clip-rule="nonzero"/></clipPath></defs><g clip-path="url(#9d75341b12)"><path fill="#921e1e" d="M 193.53125 97.371094 L 193.53125 124.734375 C 193.53125 129.769531 197.617188 133.855469 202.652344 133.855469 L 226.242188 133.855469 L 261.578125 169.183594 C 261.570312 169.421875 261.507812 169.660156 261.507812 169.894531 L 261.507812 210.941406 C 261.507812 211.1875 261.5625 211.417969 261.578125 211.652344 L 234.570312 238.664062 C 234.332031 238.652344 234.105469 238.589844 233.859375 238.589844 L 192.8125 238.589844 C 192.566406 238.589844 192.335938 238.644531 192.101562 238.664062 L 178.453125 225.015625 C 178.855469 223.519531 179.128906 221.96875 179.128906 220.347656 L 179.128906 165.617188 C 179.128906 155.539062 170.964844 147.375 160.886719 147.375 L 106.15625 147.375 C 96.078125 147.375 87.914062 155.539062 87.914062 165.617188 L 87.914062 220.347656 C 87.914062 221.96875 88.195312 223.519531 88.589844 225.015625 L 77.890625 235.714844 L 54.300781 235.714844 C 49.265625 235.714844 45.179688 239.804688 45.179688 244.839844 L 45.179688 272.203125 C 45.179688 277.238281 49.265625 281.324219 54.300781 281.324219 L 81.664062 281.324219 C 86.699219 281.324219 90.785156 277.238281 90.785156 272.203125 L 90.785156 248.625 L 101.496094 237.914062 C 102.992188 238.316406 104.535156 238.589844 106.15625 238.589844 L 160.886719 238.589844 C 162.511719 238.589844 164.050781 238.308594 165.546875 237.914062 L 179.195312 251.5625 C 179.183594 251.796875 179.121094 252.027344 179.121094 252.273438 L 179.121094 293.320312 C 179.121094 300.871094 185.25 307 192.804688 307 L 233.851562 307 C 241.402344 307 247.53125 300.871094 247.53125 293.320312 L 247.53125 252.273438 C 247.53125 252.027344 247.476562 251.796875 247.460938 251.5625 L 274.46875 224.550781 C 274.707031 224.5625 274.933594 224.625 275.179688 224.625 L 316.226562 224.625 C 323.78125 224.625 329.910156 218.496094 329.910156 210.941406 L 329.910156 169.894531 C 329.910156 162.34375 323.78125 156.214844 316.226562 156.214844 L 275.179688 156.214844 C 274.933594 156.214844 274.707031 156.269531 274.46875 156.285156 L 239.132812 120.957031 L 239.132812 97.371094 C 239.132812 92.335938 235.046875 88.25 230.011719 88.25 L 202.644531 88.25 C 197.609375 88.25 193.523438 92.335938 193.523438 97.371094 Z M 193.53125 97.371094 " fill-opacity="1" fill-rule="nonzero"/></g><g clip-path="url(#d97442c7c0)"><path fill="#ed3030" d="M 193.53125 77.257812 L 193.53125 104.621094 C 193.53125 109.65625 197.617188 113.746094 202.652344 113.746094 L 226.242188 113.746094 L 261.578125 149.070312 C 261.570312 149.308594 261.507812 149.546875 261.507812 149.785156 L 261.507812 190.832031 C 261.507812 191.078125 261.5625 191.304688 261.578125 191.542969 L 234.570312 218.550781 C 234.332031 218.542969 234.105469 218.476562 233.859375 218.476562 L 192.8125 218.476562 C 192.566406 218.476562 192.335938 218.53125 192.101562 218.550781 L 178.453125 204.90625 C 178.855469 203.410156 179.128906 201.859375 179.128906 200.234375 L 179.128906 145.503906 C 179.128906 135.425781 170.964844 127.261719 160.886719 127.261719 L 106.15625 127.261719 C 96.078125 127.261719 87.914062 135.425781 87.914062 145.503906 L 87.914062 200.234375 C 87.914062 201.859375 88.195312 203.410156 88.589844 204.90625 L 77.890625 215.605469 L 54.300781 215.605469 C 49.265625 215.605469 45.179688 219.691406 45.179688 224.726562 L 45.179688 252.089844 C 45.179688 257.125 49.265625 261.210938 54.300781 261.210938 L 81.664062 261.210938 C 86.699219 261.210938 90.785156 257.125 90.785156 252.089844 L 90.785156 228.511719 L 101.496094 217.804688 C 102.992188 218.203125 104.535156 218.476562 106.15625 218.476562 L 160.886719 218.476562 C 162.511719 218.476562 164.050781 218.195312 165.546875 217.804688 L 179.195312 231.449219 C 179.183594 231.6875 179.121094 231.914062 179.121094 232.160156 L 179.121094 273.207031 C 179.121094 280.761719 185.25 286.890625 192.804688 286.890625 L 233.851562 286.890625 C 241.402344 286.890625 247.53125 280.761719 247.53125 273.207031 L 247.53125 232.160156 C 247.53125 231.914062 247.476562 231.6875 247.460938 231.449219 L 274.46875 204.441406 C 274.707031 204.449219 274.933594 204.511719 275.179688 204.511719 L 316.226562 204.511719 C 323.78125 204.511719 329.910156 198.382812 329.910156 190.832031 L 329.910156 149.785156 C 329.910156 142.230469 323.78125 136.101562 316.226562 136.101562 L 275.179688 136.101562 C 274.933594 136.101562 274.707031 136.15625 274.46875 136.175781 L 239.132812 100.847656 L 239.132812 77.257812 C 239.132812 72.222656 235.046875 68.136719 230.011719 68.136719 L 202.644531 68.136719 C 197.609375 68.136719 193.523438 72.222656 193.523438 77.257812 Z M 193.53125 77.257812 " fill-opacity="1" fill-rule="nonzero"/></g></svg>